<svg width="160" height="42" viewBox="0 0 160 42" fill="none" xmlns="http://www.w3.org/2000/svg">
<path d="M63.575 15.9738V18.5688H57.335V15.9738H63.575ZM55.505 20.8788H57.335V20.2788H63.575V20.8638H65.495V14.2788H55.505V20.8788ZM62.03 9.43381C62.495 9.83881 62.99 10.2888 63.47 10.7688C61.745 10.8438 60.005 10.9188 58.385 10.9788C59.105 9.88381 59.855 8.62381 60.485 7.43881L58.43 6.77881C57.92 8.09881 57.065 9.74881 56.225 11.0538C55.385 11.0688 54.605 11.0988 53.915 11.1138L54.02 12.9138C56.81 12.8088 60.995 12.6438 64.955 12.4338C65.36 12.9288 65.69 13.3938 65.915 13.7988L67.46 12.6138C66.695 11.3238 64.91 9.59881 63.425 8.38381L62.03 9.43381ZM78.245 7.13881H75.635V7.99381H78.245V7.13881ZM71.885 8.57881C71.435 8.09881 70.46 7.46881 69.725 7.06381L68.705 8.27881C69.455 8.72881 70.385 9.41881 70.805 9.91381L71.885 8.57881ZM71.6 12.4038C71.105 11.9388 70.13 11.3538 69.365 10.9938L68.39 12.2388C69.14 12.6438 70.115 13.3038 70.55 13.7688L71.6 12.4038ZM70.31 20.7138C70.91 19.2588 71.525 17.5188 72.005 15.9138L70.595 15.0138C70.04 16.7688 69.275 18.6588 68.735 19.8288L70.31 20.7138ZM77.3 13.5138H76.55V12.8538H77.3V13.5138ZM73.04 14.4438H74.165V11.4588L74.63 11.4138C74.66 11.5638 74.675 11.6988 74.69 11.8188L75.5 11.5188C75.44 11.0538 75.23 10.3338 74.975 9.79381L74.225 10.0638C74.27 10.1838 74.315 10.3188 74.36 10.4538L73.715 10.4688C74.18 9.94381 74.66 9.32881 75.095 8.75881V9.29881H78.68V9.13381C79.025 9.43381 79.355 9.79381 79.58 10.0938C79.445 10.2438 79.31 10.4088 79.19 10.5438L78.485 10.5588L78.59 11.6388L79.88 11.5638V12.1188L78.905 11.8938C78.785 12.4488 78.62 13.0488 78.38 13.5438V12.0588H75.515V14.3088H78.38V13.8138C78.65 13.9338 79.01 14.1288 79.19 14.2638C79.445 13.7838 79.715 13.0638 79.88 12.3888V14.4438H81.02V11.5038L81.605 11.4588C81.635 11.5938 81.665 11.7138 81.68 11.8188L82.58 11.4288C82.475 10.9338 82.19 10.1988 81.89 9.65881L81.035 10.0038C81.11 10.1538 81.185 10.3188 81.26 10.4838L80.435 10.4988C80.975 9.91381 81.545 9.22381 82.04 8.60881L81.05 8.05381C80.855 8.39881 80.585 8.78881 80.285 9.19381C80.195 9.08881 80.09 8.96881 79.97 8.86381C80.285 8.42881 80.63 7.87381 80.975 7.36381L79.955 6.86881C79.79 7.24381 79.52 7.78381 79.265 8.24881L79.07 8.09881L78.68 8.62381V8.36881H75.095V8.62381L74.195 8.11381C74.03 8.41381 73.805 8.74381 73.565 9.10381C73.475 8.99881 73.355 8.90881 73.25 8.80381C73.535 8.36881 73.865 7.84381 74.18 7.33381L73.175 6.82381C73.01 7.22881 72.755 7.76881 72.5 8.21881C72.425 8.17381 72.335 8.11381 72.26 8.06881L71.705 8.93881C72.11 9.23881 72.56 9.64381 72.89 10.0038C72.755 10.1838 72.605 10.3638 72.47 10.5288L71.555 10.5588L71.675 11.6388C72.095 11.6088 72.56 11.5788 73.04 11.5338V12.1188L72.05 11.8938C71.915 12.5688 71.705 13.2888 71.36 13.8288C71.63 13.9338 72.08 14.1588 72.305 14.2938C72.59 13.7988 72.86 13.0638 73.04 12.3888V14.4438ZM81.065 12.1638C81.32 12.7788 81.59 13.5738 81.68 14.0988L82.625 13.7838C82.505 13.2738 82.22 12.4938 81.965 11.8938L81.065 12.1638ZM75.53 11.6538H78.38V10.8438H75.53V11.6538ZM78.38 9.68881H75.53V10.4988H78.38V9.68881ZM75.47 13.5288C75.395 13.1088 75.23 12.4488 75.065 11.9538L74.21 12.1488C74.36 12.6738 74.51 13.3488 74.57 13.7838L75.47 13.5288ZM74.42 17.6538L74.54 17.1888H81.185V14.6988H72.68V15.7038H79.535V16.1688H73.13C72.95 17.0988 72.665 18.2088 72.395 18.9738L74 19.1838C74.045 19.0488 74.09 18.8988 74.135 18.7488H80.045C79.91 19.1688 79.775 19.4088 79.61 19.5288C79.46 19.6338 79.28 19.6488 78.98 19.6488C78.605 19.6488 77.615 19.6338 76.715 19.5438C76.97 19.9188 77.165 20.4588 77.195 20.8488C78.125 20.8788 79.04 20.8938 79.52 20.8788C80.12 20.8488 80.54 20.7738 80.915 20.4888C81.32 20.1588 81.59 19.4988 81.83 18.2988C81.89 18.0888 81.92 17.6538 81.92 17.6538H74.42ZM91.655 7.97881C92.75 10.0338 94.475 12.4038 95.885 13.9188C96.23 13.4238 96.92 12.7338 97.385 12.3588C96.02 11.0988 94.31 8.99881 93.44 7.24381L91.655 7.97881ZM87.44 7.21381C86.66 9.29881 85.25 11.3538 83.705 12.5688C84.17 12.8538 85.055 13.5288 85.415 13.9038C86.945 12.4788 88.52 10.1538 89.48 7.79881L87.44 7.21381ZM91.91 15.6288C92.465 16.3638 93.065 17.2188 93.605 18.0588C91.865 18.1488 90.11 18.2388 88.49 18.3138C89.405 16.6938 90.38 14.6838 91.16 12.8388L89.015 12.3438C88.445 14.2188 87.41 16.6188 86.45 18.4038L84.365 18.4788L84.605 20.3538C87.245 20.2338 91.025 20.0088 94.625 19.7688C94.88 20.2038 95.09 20.6088 95.24 20.9688L97.1 19.9938C96.365 18.5538 94.955 16.4388 93.65 14.8188L91.91 15.6288ZM101.915 15.0438V14.1288H104.525V15.0438H101.915ZM101.915 11.8788H104.525V12.7938H101.915V11.8788ZM108.98 11.8788V12.7938H106.355V11.8788H108.98ZM108.98 15.0438H106.355V14.1288H108.98V15.0438ZM112.34 17.2788H106.355V16.4688H110.78V10.4538H106.355V9.73381H111.905V8.11381H106.355V6.89881H104.525V8.11381H99.08V9.73381H104.525V10.4538H100.205V16.4688H104.525V17.2788H98.72V18.8838H104.525V20.9088H106.355V18.8838H112.34V17.2788ZM121.441 11.2488C122.571 11.2488 123.466 11.5738 124.126 12.2238C124.786 12.8638 125.116 13.7788 125.116 14.9688V16.0488H119.836C119.856 16.6788 120.041 17.1738 120.391 17.5338C120.751 17.8938 121.246 18.0738 121.876 18.0738C122.396 18.0738 122.871 18.0238 123.301 17.9238C123.741 17.8138 124.191 17.6488 124.651 17.4288V19.1538C124.241 19.3538 123.816 19.4988 123.376 19.5888C122.936 19.6888 122.401 19.7388 121.771 19.7388C120.951 19.7388 120.226 19.5888 119.596 19.2888C118.966 18.9788 118.471 18.5188 118.111 17.9088C117.751 17.2888 117.571 16.5038 117.571 15.5538C117.571 14.6038 117.731 13.8088 118.051 13.1688C118.381 12.5288 118.836 12.0488 119.416 11.7288C119.996 11.4088 120.671 11.2488 121.441 11.2488ZM121.456 12.8388C121.016 12.8388 120.656 12.9788 120.376 13.2588C120.096 13.5388 119.931 13.9738 119.881 14.5638H123.016C123.006 14.0738 122.871 13.6638 122.611 13.3338C122.361 13.0038 121.976 12.8388 121.456 12.8388ZM132.01 9.26881C132.22 9.94381 132.37 10.7838 132.4 11.3538L133.195 11.1138C133.15 10.5288 132.955 9.64381 132.715 8.95381L132.01 9.16381V8.53381H133.27V11.7888H132.01V9.26881ZM135.64 9.19381L134.92 8.93881C134.815 9.53881 134.56 10.4088 134.35 11.0088V8.53381H135.64V9.19381ZM134.35 11.7888V11.1438L134.965 11.3688C135.16 10.9338 135.4 10.2888 135.64 9.65881V11.7888H134.35ZM130.39 17.2938C132.205 17.2188 134.77 17.0838 137.2 16.9338L137.23 15.5538C136.36 15.5838 135.46 15.6288 134.59 15.6588V14.9988H136.99V13.6488H134.59V12.9888H137.02V7.33381H130.675V12.9888H133.015V13.6488H130.705V14.9988H133.015V15.7188C132.01 15.7488 131.095 15.7788 130.345 15.7938L130.39 17.2938ZM131.17 20.8938C131.8 20.2038 132.055 19.0638 132.235 17.9988L131.035 17.6388C130.9 18.6288 130.555 19.6638 130.015 20.2938L131.17 20.8938ZM132.34 17.7288C132.505 18.5688 132.625 19.6488 132.595 20.3538L133.75 20.2188C133.735 19.4988 133.615 18.4338 133.435 17.5938L132.34 17.7288ZM133.84 17.6688C134.125 18.4638 134.38 19.4988 134.44 20.1738L135.55 19.9488C135.46 19.2588 135.19 18.2538 134.905 17.4588L133.84 17.6688ZM135.295 17.5338C135.76 18.2838 136.21 19.2738 136.39 19.9338L137.515 19.4688C137.32 18.8088 136.84 17.8488 136.36 17.1438L135.295 17.5338ZM141.94 18.6888H139.165V15.5538H141.94V18.6888ZM144.145 11.6238V9.97381H141.25V6.89881H139.51V13.9338H137.545V20.8788H139.165V20.2938H141.94V20.8188H143.65V13.9338H141.25V11.6238H144.145ZM153.475 11.9238V12.7338H151.75V11.9238H153.475ZM156.835 12.7338H155.065V11.9238H156.835V12.7338ZM155.065 14.8188V13.9788H156.835V14.8188H155.065ZM151.75 14.8188V13.9788H153.475V14.8188H151.75ZM151.75 16.1088H153.475V18.2988H155.065V16.1088H156.835V16.7988C156.835 16.9488 156.79 17.0088 156.61 17.0238C156.46 17.0238 155.935 17.0238 155.47 17.0088C155.665 17.3838 155.845 17.9688 155.905 18.4038C156.805 18.4038 157.45 18.4038 157.93 18.1488C158.41 17.9088 158.545 17.5338 158.545 16.8138V10.6338H156.73C156.475 10.4838 156.16 10.3338 155.83 10.1688C156.805 9.56881 157.75 8.84881 158.5 8.14381L157.435 7.28881L157.09 7.37881H150.205V8.72881H155.545C155.17 8.99881 154.765 9.28381 154.345 9.52381C153.73 9.25381 153.1 9.01381 152.575 8.81881L151.42 9.77881C152.035 10.0188 152.755 10.3188 153.43 10.6338H150.07V18.3588H151.75V16.1088ZM149.245 9.50881C148.705 8.78881 147.55 7.82881 146.635 7.19881L145.405 8.33881C146.32 9.02881 147.445 10.0638 147.91 10.7838L149.245 9.50881ZM148.795 12.7038H145.18V14.3388H147.085V17.6088C146.395 18.1188 145.63 18.6138 144.985 18.9738L145.81 20.7588C146.65 20.1288 147.355 19.5438 148.045 18.9588C148.945 20.1138 150.13 20.5488 151.93 20.6238C153.76 20.6988 156.94 20.6688 158.785 20.5788C158.86 20.0838 159.13 19.2588 159.34 18.8388C157.285 19.0038 153.73 19.0488 151.945 18.9738C150.415 18.9138 149.38 18.4938 148.795 17.4888V12.7038Z" fill="black"/>
<path d="M60.8672 28.2616H57.9434V36.1776H57.2227V28.2616H54.3047V27.6463H60.8672V28.2616ZM65.8999 36.1776C65.8296 35.9784 65.7847 35.6834 65.7652 35.2928C65.5191 35.6131 65.2046 35.8612 64.8218 36.037C64.4429 36.2088 64.0405 36.2948 63.6148 36.2948C63.0054 36.2948 62.5113 36.1248 62.1323 35.785C61.7573 35.4452 61.5698 35.0155 61.5698 34.4959C61.5698 33.8788 61.8257 33.3905 62.3374 33.0311C62.853 32.6717 63.5698 32.492 64.4878 32.492H65.7593V31.7713C65.7593 31.3182 65.6187 30.9627 65.3374 30.7049C65.0601 30.4432 64.6538 30.3123 64.1187 30.3123C63.6304 30.3123 63.2261 30.4373 62.9058 30.6873C62.5855 30.9373 62.4253 31.2381 62.4253 31.5897L61.7222 31.5838C61.7222 31.0799 61.9566 30.6444 62.4253 30.2772C62.8941 29.9061 63.4702 29.7206 64.1538 29.7206C64.8609 29.7206 65.4175 29.8983 65.8238 30.2538C66.2339 30.6053 66.4448 31.0975 66.4566 31.7303V34.7303C66.4566 35.3436 66.521 35.8026 66.6499 36.1073V36.1776H65.8999ZM63.6968 35.6737C64.1655 35.6737 64.5835 35.5604 64.9507 35.3338C65.3218 35.1073 65.5913 34.8045 65.7593 34.4256V33.0311H64.5054C63.8062 33.0389 63.2593 33.1678 62.8648 33.4178C62.4702 33.6639 62.273 34.0038 62.273 34.4373C62.273 34.7928 62.4038 35.0877 62.6655 35.3221C62.9312 35.5565 63.2749 35.6737 63.6968 35.6737ZM69.5967 36.1776H68.8936V29.8377H69.5967V36.1776ZM68.7705 28.0038C68.7705 27.8709 68.8135 27.7596 68.8995 27.6698C68.9854 27.576 69.1026 27.5291 69.251 27.5291C69.3995 27.5291 69.5166 27.576 69.6026 27.6698C69.6924 27.7596 69.7373 27.8709 69.7373 28.0038C69.7373 28.1366 69.6924 28.2479 69.6026 28.3377C69.5166 28.4276 69.3995 28.4725 69.251 28.4725C69.1026 28.4725 68.9854 28.4276 68.8995 28.3377C68.8135 28.2479 68.7705 28.1366 68.7705 28.0038ZM73.5045 34.7186L73.6099 35.2635L73.7505 34.6893L75.274 29.8377H75.8716L77.3775 34.6483L77.5416 35.3163L77.6763 34.701L78.9771 29.8377H79.7037L77.858 36.1776H77.2603L75.6314 31.1502L75.5552 30.8045L75.4791 31.1561L73.8795 36.1776H73.2818L71.442 29.8377H72.1627L73.5045 34.7186ZM85.5157 36.1776C85.4454 35.9784 85.4005 35.6834 85.3809 35.2928C85.1348 35.6131 84.8204 35.8612 84.4376 36.037C84.0587 36.2088 83.6563 36.2948 83.2305 36.2948C82.6212 36.2948 82.127 36.1248 81.7481 35.785C81.3731 35.4452 81.1856 35.0155 81.1856 34.4959C81.1856 33.8788 81.4415 33.3905 81.9532 33.0311C82.4688 32.6717 83.1856 32.492 84.1036 32.492H85.3751V31.7713C85.3751 31.3182 85.2345 30.9627 84.9532 30.7049C84.6759 30.4432 84.2696 30.3123 83.7345 30.3123C83.2462 30.3123 82.8419 30.4373 82.5216 30.6873C82.2013 30.9373 82.0411 31.2381 82.0411 31.5897L81.338 31.5838C81.338 31.0799 81.5723 30.6444 82.0411 30.2772C82.5098 29.9061 83.086 29.7206 83.7696 29.7206C84.4766 29.7206 85.0333 29.8983 85.4395 30.2538C85.8497 30.6053 86.0606 31.0975 86.0723 31.7303V34.7303C86.0723 35.3436 86.1368 35.8026 86.2657 36.1073V36.1776H85.5157ZM83.3126 35.6737C83.7813 35.6737 84.1993 35.5604 84.5665 35.3338C84.9376 35.1073 85.2071 34.8045 85.3751 34.4256V33.0311H84.1212C83.422 33.0389 82.8751 33.1678 82.4805 33.4178C82.086 33.6639 81.8888 34.0038 81.8888 34.4373C81.8888 34.7928 82.0196 35.0877 82.2813 35.3221C82.547 35.5565 82.8907 35.6737 83.3126 35.6737ZM89.0953 29.8377L89.1188 30.9217C89.357 30.5311 89.6539 30.2342 90.0094 30.0311C90.3648 29.8241 90.7574 29.7206 91.1871 29.7206C91.8668 29.7206 92.3727 29.912 92.7047 30.2948C93.0367 30.6776 93.2047 31.2518 93.2086 32.0174V36.1776H92.5113V32.0116C92.5074 31.4452 92.3863 31.0233 92.148 30.7459C91.9137 30.4686 91.5367 30.3299 91.0172 30.3299C90.5836 30.3299 90.1988 30.4666 89.8629 30.7401C89.5309 31.0096 89.2848 31.3748 89.1246 31.8358V36.1776H88.4273V29.8377H89.0953ZM99.067 36.1776V27.6463H101.587C102.501 27.6463 103.194 27.8358 103.667 28.2147C104.139 28.5897 104.376 29.1444 104.376 29.8788C104.376 30.3202 104.255 30.7049 104.012 31.0331C103.774 31.3573 103.446 31.5897 103.028 31.7303C103.524 31.8397 103.923 32.0838 104.223 32.4627C104.528 32.8416 104.68 33.2791 104.68 33.7752C104.68 34.5291 104.436 35.119 103.948 35.5448C103.464 35.9666 102.788 36.1776 101.921 36.1776H99.067ZM99.7877 32.076V35.5682H101.95C102.567 35.5682 103.055 35.412 103.415 35.0995C103.778 34.7831 103.96 34.3456 103.96 33.787C103.96 33.2596 103.786 32.8436 103.438 32.5389C103.094 32.2303 102.618 32.076 102.008 32.076H99.7877ZM99.7877 31.4725H101.756C102.358 31.4608 102.823 31.3202 103.151 31.0506C103.483 30.7772 103.649 30.3807 103.649 29.8612C103.649 29.3143 103.477 28.912 103.133 28.6541C102.794 28.3924 102.278 28.2616 101.587 28.2616H99.7877V31.4725ZM110.82 35.3748C110.399 35.9881 109.725 36.2948 108.799 36.2948C108.123 36.2948 107.61 36.0995 107.258 35.7088C106.906 35.3143 106.727 34.7323 106.719 33.9627V29.8377H107.416V33.8748C107.416 35.0819 107.904 35.6854 108.881 35.6854C109.897 35.6854 110.539 35.2655 110.809 34.4256V29.8377H111.512V36.1776H110.832L110.82 35.3748ZM117.617 34.5663C117.617 34.2186 117.476 33.9393 117.195 33.7284C116.918 33.5174 116.498 33.3534 115.935 33.2362C115.373 33.1151 114.935 32.9784 114.623 32.826C114.314 32.6698 114.084 32.4803 113.931 32.2577C113.783 32.035 113.709 31.7655 113.709 31.4491C113.709 30.9491 113.918 30.537 114.336 30.2127C114.754 29.8846 115.289 29.7206 115.941 29.7206C116.648 29.7206 117.215 29.8963 117.64 30.2479C118.07 30.5956 118.285 31.0506 118.285 31.6131H117.582C117.582 31.242 117.425 30.9334 117.113 30.6873C116.804 30.4413 116.414 30.3182 115.941 30.3182C115.48 30.3182 115.109 30.4217 114.828 30.6288C114.55 30.8319 114.412 31.0975 114.412 31.4256C114.412 31.742 114.527 31.9881 114.757 32.1639C114.992 32.3358 115.416 32.494 116.029 32.6385C116.646 32.7831 117.107 32.9373 117.412 33.1014C117.72 33.2655 117.949 33.4627 118.097 33.6932C118.246 33.9237 118.32 34.203 118.32 34.5311C118.32 35.0663 118.103 35.494 117.67 35.8143C117.24 36.1346 116.677 36.2948 115.982 36.2948C115.244 36.2948 114.644 36.117 114.183 35.7616C113.726 35.4022 113.498 34.9491 113.498 34.4022H114.201C114.228 34.8123 114.4 35.1327 114.716 35.3631C115.037 35.5897 115.459 35.703 115.982 35.703C116.47 35.703 116.865 35.5956 117.166 35.3807C117.466 35.1659 117.617 34.8944 117.617 34.5663ZM123.159 31.8416H125.755V32.4979H123.159V35.3221H122.45V32.4979H119.907V31.8416H122.45V29.1112H123.159V31.8416Z" fill="black"/>
<rect x="27" y="4.5701" width="11" height="10.7944" rx="3" fill="#D08181"/>
<path d="M8.50002 12.9112H10.5L11.5 15.3645L13.5 12.9112H15C16.6 14.0888 17 19.9439 17 22.7243H6.50002C5.70002 20.3692 7.50002 15.2009 8.50002 12.9112Z" fill="#283C43"/>
<ellipse cx="10" cy="18.3084" rx="1" ry="0.98131" fill="white"/>
<path d="M12.3733 0.644867C12.6622 0.708305 12.9511 0.761171 13.2293 0.845755C14.9947 1.39555 16.1502 2.53744 16.7066 4.282C16.7387 4.37716 16.7708 4.48289 16.7922 4.57805C17.0276 4.63091 17.2523 4.66263 17.4662 4.73664C18.365 5.03269 18.9 5.87853 18.8037 6.84068C18.7181 7.71824 17.9691 8.46893 17.0276 8.55352C16.7815 8.57466 16.6959 8.65925 16.621 8.87071C15.9041 10.9219 13.9676 12.2858 11.7956 12.2858C9.63431 12.2858 7.69772 10.9325 6.97017 8.87071C6.89527 8.65925 6.80968 8.56409 6.56359 8.54294C5.55785 8.44779 4.7982 7.62309 4.7661 6.62922C4.734 5.68822 5.41876 4.8318 6.3924 4.66263C6.72408 4.60976 6.83108 4.46174 6.92737 4.1657C7.59073 2.26255 8.93885 1.12065 10.9503 0.718878C11.0252 0.708305 11.1001 0.666013 11.175 0.644867C11.5709 0.644867 11.9668 0.644867 12.3733 0.644867ZM10.4261 4.5569C10.3726 4.64148 10.3298 4.72607 10.2656 4.80008C9.34543 5.71994 8.23269 6.06885 6.94877 5.86796C6.59569 5.81509 6.26401 5.88911 6.13562 6.21687C6.05002 6.46005 6.06072 6.79839 6.16771 7.031C6.31751 7.33761 6.64919 7.41163 7.00227 7.32704C7.63353 7.16845 7.83682 7.31647 7.98661 7.94028C8.0615 8.2469 8.1471 8.55352 8.27549 8.83899C8.99235 10.3827 10.5759 11.2391 12.3412 11.0382C13.9248 10.8584 15.2622 9.61082 15.6046 7.972C15.7436 7.31647 15.9683 7.16845 16.5996 7.32704C16.9527 7.41163 17.2309 7.31647 17.4448 7.04157C17.6374 6.77724 17.6481 6.49177 17.4769 6.22744C17.2844 5.92082 17.0062 5.82567 16.6424 5.87853C16.2465 5.94197 15.8506 6.01598 15.4548 6.02656C13.6359 6.08999 11.9561 5.67764 10.4261 4.5569ZM15.519 4.78951C15.305 3.15068 13.3684 1.73389 11.5816 1.87134C9.90179 2.00879 8.115 3.43616 8.1685 4.63091C8.82116 4.48289 9.30263 4.1234 9.66641 3.58418C10.1479 2.88636 10.3512 2.87578 11.0145 3.43615C12.2985 4.54633 13.8392 4.86352 15.519 4.78951Z" fill="black"/>
<path d="M28.936 34.0558C28.936 34.2355 28.936 34.3835 28.936 34.5633C29.4282 34.6373 30.0809 34.4258 30.1558 35.1977C30.1986 35.5994 29.9311 35.7263 28.9574 35.832C28.9574 36.2127 28.9574 36.5933 28.9574 37.0268C29.3212 37.0268 29.685 37.0162 30.0381 37.0268C30.466 37.0374 30.7442 37.27 30.7442 37.6189C30.7549 37.9889 30.4768 38.2321 30.0167 38.2427C29.685 38.2533 29.3533 38.2533 29.0109 38.2533C29.0002 38.2533 28.9895 38.2638 28.936 38.2744C28.936 38.8348 28.936 39.4057 28.936 40.019C29.9204 40.019 30.9047 40.019 31.9105 40.019C31.9105 31.9834 31.9105 23.9585 31.9105 15.8807C31.7714 15.8701 31.6323 15.8595 31.4932 15.8595C30.7549 15.849 30.0167 15.8807 29.2891 15.8278C27.8875 15.7115 26.8497 14.6436 26.8283 13.2586C26.7962 11.2074 26.7962 9.15621 26.8283 7.11561C26.8604 5.65653 28.0266 4.55693 29.4924 4.54636C31.1187 4.53578 32.7557 4.54636 34.382 4.54636C34.8421 4.54636 35.1203 4.77896 35.131 5.13845C35.1417 5.51908 34.8528 5.75168 34.3606 5.75168C32.8199 5.75168 31.2899 5.75168 29.7492 5.75168C28.6044 5.75168 28.0587 6.30148 28.0587 7.4328C28.0587 9.28309 28.0587 11.1334 28.0587 12.9837C28.0587 14.0938 28.6044 14.6331 29.7385 14.6331C31.6323 14.6331 33.5368 14.6331 35.4306 14.6331C36.447 14.6331 37.0355 14.0621 37.0355 13.0682C37.0462 11.1545 37.0355 9.24079 37.0355 7.3165C37.0355 6.89357 36.9178 6.52352 36.6289 6.18518C36.34 5.85742 36.3721 5.5085 36.661 5.2759C36.9392 5.05386 37.2922 5.09615 37.5811 5.41335C38.0305 5.89971 38.2659 6.48123 38.2659 7.14733C38.2766 9.16678 38.2873 11.1862 38.2659 13.2163C38.2552 14.5908 37.2281 15.7009 35.8478 15.8172C35.131 15.8807 34.4034 15.849 33.6866 15.8595C33.5261 15.8595 33.3656 15.8595 33.1837 15.8595C33.1837 23.9268 33.1837 31.9517 33.1837 40.0507C33.6117 40.0507 34.0503 40.0507 34.489 40.0507C34.8314 40.0507 35.1845 40.0401 35.5269 40.0613C35.8692 40.0824 36.1046 40.3256 36.1153 40.6428C36.1153 40.96 35.8906 41.2137 35.5482 41.256C35.4306 41.2666 35.3129 41.2666 35.1845 41.2666C24.9773 41.2666 14.7808 41.2666 4.57357 41.2666C4.47728 41.2666 4.38099 41.2666 4.29539 41.2666C3.89951 41.2455 3.65343 40.9917 3.66413 40.6428C3.67483 40.3044 3.91021 40.0718 4.29539 40.0613C5.05505 40.0507 5.8147 40.0613 6.58506 40.0613C6.68135 40.0613 6.76695 40.0613 6.89534 40.0613C5.9217 33.1676 5.52582 26.274 5.8789 19.3169C5.69701 19.3169 5.44022 19.3275 5.17274 19.3169C4.26329 19.2852 3.35385 19.2852 2.4551 19.2112C2.12342 19.1795 1.78104 19.0314 1.48146 18.8729C0.967887 18.598 0.721802 18.1433 0.721802 17.5724C0.732501 16.5891 1.11768 15.7749 1.92013 15.1829C2.78678 14.5485 3.79252 14.2947 4.83036 14.1678C5.56862 14.0727 6.31757 14.041 7.06653 13.9987C7.29121 13.9881 7.41961 13.9352 7.5159 13.7132C8.13646 12.233 7.99737 12.4444 9.49528 12.4233C9.65578 12.4233 9.81627 12.4339 9.97676 12.4233C10.3298 12.4021 10.5866 12.5396 10.7792 12.8356C11.0895 13.3008 11.4105 13.7449 11.7743 14.263C12.0952 13.8084 12.4162 13.3854 12.6837 12.9414C12.9298 12.5396 13.2508 12.381 13.7108 12.4127C14.096 12.4339 14.4812 12.4233 14.8771 12.4127C15.2729 12.4021 15.5725 12.5502 15.6902 12.9202C15.8721 13.5229 16.3001 13.8718 16.803 14.2313C18.3544 15.3309 19.3066 16.8851 19.9807 18.6085C21.0506 21.3258 21.2325 24.0959 20.3551 26.9084C20.2054 27.3842 19.9272 27.5851 19.5527 27.4793C19.1568 27.363 19.0284 27.0458 19.1782 26.5489C20.2589 22.8589 19.5848 19.4755 17.2951 16.3882C17.1774 16.2296 17.0383 16.0921 16.8565 15.9653C17.0062 16.5679 17.156 17.1706 17.2951 17.7733C17.8087 20.0888 17.9157 22.436 17.8194 24.7938C17.6803 27.9128 17.5733 31.0213 17.3593 34.1404C17.2309 35.9695 16.9206 37.7881 16.696 39.6066C16.6746 39.7335 16.6639 39.8604 16.6532 40.0295C17.8087 40.0295 18.9428 40.0295 20.0877 40.0295C20.0877 39.448 20.0877 38.8771 20.0877 38.2533C19.7025 38.2533 19.3387 38.2533 18.9642 38.2533C18.5042 38.2427 18.2474 38.0101 18.2581 37.6295C18.2688 37.2594 18.5149 37.0585 18.9642 37.0479C19.3387 37.0374 19.7025 37.0479 20.0984 37.0479C20.0984 36.625 20.0984 36.2444 20.0984 35.8532C19.6169 35.7369 18.8251 36.0329 18.8572 35.1765C18.8893 34.4047 19.6062 34.669 20.0984 34.5844C20.0984 34.4047 20.0984 34.2461 20.0984 34.0663C19.5955 33.9712 18.8786 34.2249 18.8465 33.3897C18.8251 32.9667 19.0926 32.8504 20.077 32.7976C20.1733 32.4592 20.3016 32.1209 20.7617 32.142C21.1469 32.1632 21.3181 32.4169 21.3609 32.787C23.4473 32.787 25.5336 32.787 27.6307 32.787C27.7056 32.4487 27.8447 32.1526 28.262 32.142C28.7007 32.1315 28.8504 32.4275 28.9253 32.787C29.4175 32.8504 30.0381 32.6707 30.1344 33.4108C30.2093 33.7809 29.9525 33.9183 28.936 34.0558ZM7.02373 23.3981C6.68135 25.7559 7.64429 38.5282 8.27556 40.019C8.57514 40.1036 8.67143 39.9978 8.69283 39.6912C8.76773 38.5493 8.85332 37.3969 8.96032 36.255C9.00311 35.8109 9.292 35.5783 9.66647 35.6206C10.0196 35.6629 10.2228 35.9589 10.1907 36.3818C10.1586 36.7096 10.1158 37.0374 10.0944 37.3651C10.0303 38.2427 9.96606 39.1203 9.90186 40.0084C11.2072 40.0084 12.4697 40.0084 13.7536 40.0084C13.7429 39.7969 13.7322 39.6278 13.7215 39.4586C13.6038 38.1158 13.5396 36.7625 13.3471 35.4303C12.9512 32.5967 12.4804 29.7631 12.031 26.9401C12.0096 26.8238 11.8919 26.7286 11.817 26.6335C11.7529 26.7286 11.6459 26.8238 11.6245 26.9295C11.4105 27.9868 11.2072 29.0547 11.0253 30.1226C10.822 31.3385 10.6615 32.5544 10.4796 33.7703C10.4154 34.1721 10.1586 34.3835 9.80557 34.3518C9.44179 34.3201 9.2278 34.024 9.2599 33.6117C9.2706 33.4425 9.3027 33.2734 9.33479 33.1042C9.74137 30.7358 10.1479 28.3675 10.5545 25.9991C10.6294 25.5762 10.8434 25.4176 11.2714 25.407C11.6138 25.3964 11.9668 25.407 12.3092 25.407C12.7907 25.4176 12.994 25.5762 13.0903 26.0308C14.0532 30.5349 14.6631 35.0814 14.9413 39.6806C14.9627 40.0401 15.0804 40.1247 15.4334 39.9873C16.3857 34.5104 16.5569 28.9701 16.6532 23.4087C13.4006 22.9858 10.2121 22.9858 7.02373 23.3981ZM7.5159 17.9424C7.90108 17.9741 8.14716 17.9847 8.38255 17.6464C8.92822 16.864 10.0944 16.7159 10.715 17.4243C11.1751 17.953 11.6031 18.4816 12.2022 18.8834C12.4697 19.0632 12.4483 19.4755 12.2343 19.6976C11.9882 19.9513 11.6994 19.983 11.4105 19.7821C11.2821 19.6976 11.1537 19.6024 11.036 19.5284C10.1265 20.4059 9.05661 20.4271 8.39325 19.613C8.02947 19.1583 7.86898 19.116 7.22702 19.2958C7.14142 20.2262 7.04513 21.1884 6.94883 22.1928C10.2228 21.8016 13.422 21.8122 16.6104 22.1716C16.6104 21.8967 16.6211 21.6853 16.6104 21.4738C16.4285 18.9046 15.8721 16.4093 14.8664 14.0304C14.8022 13.8824 14.6417 13.6709 14.5347 13.6709C14.203 13.6815 13.8178 13.4806 13.561 13.8929C13.1866 14.4745 12.78 15.0348 12.3841 15.5846C12.0417 16.0604 11.5924 16.0604 11.25 15.5846C10.8969 15.0877 10.5545 14.5908 10.2014 14.0833C9.91256 13.6709 9.47389 13.5123 9.01381 13.6498C8.94962 13.6709 8.87472 13.7343 8.85332 13.7978C8.25416 15.1088 7.82618 16.4833 7.5159 17.9424ZM21.393 39.9978C23.5222 39.9978 25.5978 39.9978 27.6628 39.9978C27.6628 39.3952 27.6628 38.8136 27.6628 38.2638C25.555 38.2638 23.4794 38.2638 21.393 38.2638C21.393 38.8559 21.393 39.4269 21.393 39.9978ZM6.92744 15.1934C6.56366 15.2146 6.23198 15.1829 5.911 15.2463C5.02295 15.4049 4.1349 15.5635 3.26825 15.8067C2.70119 15.9653 2.27321 16.367 2.08062 16.9486C1.84524 17.6464 1.99503 17.953 2.72258 17.9953C3.81392 18.0587 4.90525 18.0376 5.99659 18.0164C6.09289 18.0164 6.24268 17.8473 6.27477 17.7415C6.48876 16.9908 6.68135 16.2402 6.88464 15.4895C6.90604 15.4049 6.90604 15.3203 6.92744 15.1934ZM21.393 36.9951C23.5008 36.9951 25.5871 36.9951 27.6628 36.9951C27.6628 36.5827 27.6628 36.2127 27.6628 35.8215C25.5657 35.8215 23.4901 35.8215 21.393 35.8215C21.393 36.2232 21.393 36.5933 21.393 36.9951ZM27.6735 34.0346C25.5657 34.0346 23.4901 34.0346 21.393 34.0346C21.393 34.2249 21.393 34.3835 21.393 34.5633C23.5008 34.5633 25.5764 34.5633 27.6735 34.5633C27.6735 34.3835 27.6735 34.2355 27.6735 34.0346ZM9.66647 19.1478C9.84836 18.894 10.041 18.746 10.0303 18.6191C10.0196 18.4816 9.83766 18.2808 9.68787 18.2385C9.45249 18.175 9.2599 18.3653 9.292 18.6085C9.3134 18.746 9.47389 18.8834 9.66647 19.1478Z" fill="black"/>
<path d="M10.7578 8.39496C10.7471 8.54298 10.7578 8.691 10.7364 8.82845C10.6722 9.15622 10.4689 9.34653 10.1373 9.35711C9.80558 9.35711 9.57019 9.16679 9.5381 8.83902C9.4953 8.53241 9.4953 8.20464 9.5274 7.89802C9.55949 7.54911 9.79488 7.34822 10.148 7.3588C10.4903 7.36937 10.6829 7.57026 10.7364 7.88745C10.7578 8.05662 10.7364 8.22579 10.7364 8.39496C10.7471 8.39496 10.7471 8.39496 10.7578 8.39496Z" fill="black"/>
<path d="M13.2722 8.38433C13.2722 8.53235 13.2829 8.6698 13.2722 8.81782C13.2294 9.15616 13.0154 9.3359 12.6837 9.34648C12.352 9.35705 12.1166 9.16673 12.0738 8.83897C12.031 8.5112 12.031 8.18344 12.0738 7.85568C12.1166 7.52791 12.3413 7.34817 12.6837 7.3376C13.0047 7.32702 13.2508 7.55963 13.2829 7.89797C13.2936 8.06714 13.2722 8.22573 13.2722 8.38433Z" fill="black"/>
<path d="M32.424 8.14081C33.0267 8.14081 33.504 8.31414 33.856 8.66081C34.208 9.00214 34.384 9.49014 34.384 10.1248V10.7008H31.568C31.5787 11.0368 31.6773 11.3008 31.864 11.4928C32.056 11.6848 32.32 11.7808 32.656 11.7808C32.9333 11.7808 33.1867 11.7541 33.416 11.7008C33.6507 11.6421 33.8907 11.5541 34.136 11.4368V12.3568C33.9173 12.4635 33.6907 12.5408 33.456 12.5888C33.2213 12.6421 32.936 12.6688 32.6 12.6688C32.1627 12.6688 31.776 12.5888 31.44 12.4288C31.104 12.2635 30.84 12.0181 30.648 11.6928C30.456 11.3621 30.36 10.9435 30.36 10.4368C30.36 9.93014 30.4453 9.50614 30.616 9.16481C30.792 8.82347 31.0347 8.56747 31.344 8.39681C31.6533 8.22614 32.0133 8.14081 32.424 8.14081ZM32.432 8.98881C32.1973 8.98881 32.0053 9.06347 31.856 9.21281C31.7067 9.36214 31.6187 9.59414 31.592 9.90881H33.264C33.2587 9.64747 33.1867 9.42881 33.048 9.25281C32.9147 9.07681 32.7093 8.98881 32.432 8.98881Z" fill="black"/>
</svg>
